<svg xmlns="http://www.w3.org/2000/svg" xmlns:xlink="http://www.w3.org/1999/xlink" width="96" height="18" viewBox="0 0 96 18"><defs><style>.a,.b{fill:#fff;}.a{clip-rule:evenodd;}.c{clip-path:url(#a);}.d{clip-path:url(#b);}.e{clip-path:url(#c);}.f{clip-path:url(#e);}.g{clip-path:url(#g);}.h{clip-path:url(#i);}.i{clip-path:url(#k);}.j{clip-path:url(#m);}.k{clip-path:url(#o);}</style><clipPath id="a"><path class="a" d="M139.94-2752.3a1.08,1.08,0,0,0,.92-1.64,2.776,2.776,0,0,0-.228-.318,2.76,2.76,0,0,0-2.206-.941,2.65,2.65,0,0,0-2.307,1.157,3.921,3.921,0,0,0-.621,1.742Zm1.274,2.086h-4.1a1.31,1.31,0,0,0-1.174,1.907,3.266,3.266,0,0,0,.33.5,2.731,2.731,0,0,0,2.256,1.03,2.843,2.843,0,0,0,2.352-1.064,1.554,1.554,0,0,1,1.214-.576h2.444a5.686,5.686,0,0,1-1.661,2.62,6.171,6.171,0,0,1-4.31,1.538,6.058,6.058,0,0,1-4.475-1.78,6.661,6.661,0,0,1-1.927-4.909,6.681,6.681,0,0,1,2.08-5.2,5.793,5.793,0,0,1,4.069-1.475,6,6,0,0,1,3.739,1.182,5.873,5.873,0,0,1,1.764,2.182,2.855,2.855,0,0,1-2.6,4.05Z" transform="translate(-132.164 2757.628)"/></clipPath><clipPath id="b"><path class="b" d="M58-2746.323h96.814V-2765H58Z" transform="translate(-58 2765)"/></clipPath><clipPath id="c"><path class="a" d="M68.787-2753.507H66a2.29,2.29,0,0,0-2.531-1.773,3.126,3.126,0,0,0-1.666.408,1.186,1.186,0,0,0-.623,1.034.984.984,0,0,0,.687.944,19.769,19.769,0,0,0,2.811.638,10.678,10.678,0,0,1,2.544.677,3.292,3.292,0,0,1,1.96,3.215,3.618,3.618,0,0,1-1.387,2.909,6.083,6.083,0,0,1-3.994,1.238,5.924,5.924,0,0,1-4.655-1.7A4.726,4.726,0,0,1,58-2748.633h2.913q.394,2.068,2.836,2.067a3.211,3.211,0,0,0,1.666-.382,1.339,1.339,0,0,0,.763-1.213,1.011,1.011,0,0,0-.483-.893,5.3,5.3,0,0,0-1.666-.473,11.855,11.855,0,0,1-4.21-1.3,3.108,3.108,0,0,1-1.527-2.719,3.685,3.685,0,0,1,.368-1.594,3.868,3.868,0,0,1,1.005-1.315,5.627,5.627,0,0,1,3.714-1.173,7.1,7.1,0,0,1,2.417.4,4.743,4.743,0,0,1,1.819,1.116,4.212,4.212,0,0,1,1.171,2.6" transform="translate(-58 2757.628)"/></clipPath><clipPath id="e"><path class="a" d="M77.527-2765H80.8l-.044,6.75a4.814,4.814,0,0,1,3.865-2.177,4.6,4.6,0,0,1,2.748.857,4.205,4.205,0,0,1,1.695,2.69,9.713,9.713,0,0,1,.158,1.926l.044,7.954H85.993l-.044-7.281a4.743,4.743,0,0,0-.395-2.083,2.075,2.075,0,0,0-2-1.188,2.617,2.617,0,0,0-2.248,1.135,2.515,2.515,0,0,0-.486,1.213,11.264,11.264,0,0,0-.066,1.319L80.8-2747H77.527Z" transform="translate(-77.527 2765)"/></clipPath><clipPath id="g"><path class="a" d="M119.775-2757.372h3.273v1.819a3.814,3.814,0,0,1,3.26-2.1,7.873,7.873,0,0,1,.867.066v2.823q-.342-.014-.591-.014a3.322,3.322,0,0,0-2.735,1.24,4.041,4.041,0,0,0-.8,2.624v6.686h-3.273Z" transform="translate(-119.775 2757.65)"/></clipPath><clipPath id="i"><path class="a" d="M106.96-2751.27a6.985,6.985,0,0,1-1.99.763,11.522,11.522,0,0,0-2.422.763,1.643,1.643,0,0,0-.989,1.437,1.291,1.291,0,0,0,.672,1.145,2.8,2.8,0,0,0,1.534.381,3.764,3.764,0,0,0,2.408-.75,1.866,1.866,0,0,0,.685-.979,4.143,4.143,0,0,0,.1-1.031Zm-6.115-2.251H99.062a4.9,4.9,0,0,1,.926-2.479q1.356-1.629,4.551-1.628,3.956,0,5.046,2.25a6.529,6.529,0,0,1,.457,2.76v5.341c0,.62.021,1.459.064,1.83a3.949,3.949,0,0,0,.367,1.184h-3.08l-.342-1.527a6.512,6.512,0,0,1-4.057,1.527,5.1,5.1,0,0,1-3.169-1.03,3.487,3.487,0,0,1-1.509-2.861,3.644,3.644,0,0,1,2.359-3.346,13.857,13.857,0,0,1,4.184-.991,3.594,3.594,0,0,0,1.571-.42,1.006,1.006,0,0,0,.405-.852,1.383,1.383,0,0,0-.66-1.207,2.934,2.934,0,0,0-1.647-.433,2.793,2.793,0,0,0-1.94.649,1.439,1.439,0,0,0-.337.432,1.562,1.562,0,0,1-1.4.8Z" transform="translate(-98.313 2757.629)"/></clipPath><clipPath id="k"><path class="a" d="M206.9-2759.022h1.041v1.991h-2.377v6.433a3.936,3.936,0,0,0,.139,1.319,1.231,1.231,0,0,0,1.252.634q.177,0,1.164-.051v2.321h-2.251a5.747,5.747,0,0,1-1.834-.2,2.41,2.41,0,0,1-1.492-1.865,12.419,12.419,0,0,1-.127-2.157v-5.547a.883.883,0,0,0-.881-.885h-.889v-1.991h1.77v-4.2h3.149v2.859a1.338,1.338,0,0,0,1.336,1.34" transform="translate(-200.645 2763.221)"/></clipPath><clipPath id="m"><path class="a" d="M167.978-2752.3a1.08,1.08,0,0,0,.92-1.64,2.684,2.684,0,0,0-.228-.318,2.759,2.759,0,0,0-2.206-.941,2.651,2.651,0,0,0-2.308,1.157,3.922,3.922,0,0,0-.621,1.742Zm1.275,2.086h-4.1a1.31,1.31,0,0,0-1.174,1.907,3.219,3.219,0,0,0,.331.5,2.73,2.73,0,0,0,2.256,1.03,2.845,2.845,0,0,0,2.353-1.064,1.551,1.551,0,0,1,1.213-.576h2.444a5.685,5.685,0,0,1-1.661,2.62,6.174,6.174,0,0,1-4.311,1.538,6.058,6.058,0,0,1-4.475-1.78,6.661,6.661,0,0,1-1.926-4.909,6.683,6.683,0,0,1,2.079-5.2,5.793,5.793,0,0,1,4.069-1.475,6,6,0,0,1,3.739,1.182,5.866,5.866,0,0,1,1.764,2.182,2.854,2.854,0,0,1-2.6,4.05Z" transform="translate(-160.202 2757.628)"/></clipPath><clipPath id="o"><path class="a" d="M189.656-2751.27a7,7,0,0,1-1.991.763,11.525,11.525,0,0,0-2.422.763,1.643,1.643,0,0,0-.989,1.437,1.29,1.29,0,0,0,.672,1.145,2.8,2.8,0,0,0,1.534.381,3.767,3.767,0,0,0,2.408-.75,1.865,1.865,0,0,0,.685-.979,4.14,4.14,0,0,0,.1-1.031Zm-6.115-2.251h-1.783a4.9,4.9,0,0,1,.926-2.479q1.356-1.629,4.551-1.628,3.956,0,5.046,2.25a6.54,6.54,0,0,1,.457,2.76v5.341c0,.62.021,1.459.063,1.83a3.971,3.971,0,0,0,.367,1.184h-3.08l-.343-1.527a6.509,6.509,0,0,1-4.057,1.527,5.1,5.1,0,0,1-3.169-1.03,3.485,3.485,0,0,1-1.509-2.861,3.644,3.644,0,0,1,2.359-3.346,13.858,13.858,0,0,1,4.183-.991,3.6,3.6,0,0,0,1.572-.42,1.006,1.006,0,0,0,.405-.852,1.383,1.383,0,0,0-.66-1.207,2.935,2.935,0,0,0-1.648-.433,2.791,2.791,0,0,0-1.939.649,1.441,1.441,0,0,0-.337.432,1.562,1.562,0,0,1-1.4.8Z" transform="translate(-181.009 2757.629)"/></clipPath></defs><g transform="translate(305 -23)"><g transform="translate(-305 23)"><g class="c" transform="translate(46.026 4.589)"><g class="d" transform="translate(-46.026 -4.589)"><path class="b" d="M127.164-2762.628h18.58v19.59h-18.58Z" transform="translate(-84.24 2764.104)"/></g></g><g class="e" transform="translate(0 4.589)"><g class="d" transform="translate(0 -4.589)"><path class="b" d="M53-2762.628H70.388v19.636H53Z" transform="translate(-56.103 2764.104)"/></g></g><g class="f" transform="translate(12.119)"><g class="d" transform="translate(-12.119)"><path class="b" d="M72.527-2770H90.472v24.225H72.527Z" transform="translate(-63.511 2766.887)"/></g></g><g class="g" transform="translate(38.338 4.576)"><g class="d" transform="translate(-38.338 -4.576)"><path class="b" d="M114.775-2762.65h13.607V-2743H114.775Z" transform="translate(-79.54 2764.113)"/></g></g><g class="h" transform="translate(25.019 4.589)"><g class="d" transform="translate(-25.019 -4.589)"><path class="b" d="M93.313-2762.629h18.364v19.592H93.313Z" transform="translate(-71.398 2764.105)"/></g></g><g class="i" transform="translate(88.526 1.108)"><g class="d" transform="translate(-88.526 -1.108)"><path class="b" d="M195.645-2768.221h13.68v23.073h-13.68Z" transform="translate(-110.222 2766.216)"/></g></g><g class="j" transform="translate(63.427 4.589)"><g class="d" transform="translate(-63.427 -4.589)"><path class="b" d="M155.2-2762.628h18.579v19.59H155.2Z" transform="translate(-94.878 2764.104)"/></g></g><g class="k" transform="translate(76.34 4.589)"><g class="d" transform="translate(-76.34 -4.589)"><path class="b" d="M176.009-2762.629h18.364v19.592H176.009Z" transform="translate(-102.772 2764.105)"/></g></g></g></g></svg>